HIERARCHY
ROOT Hips
{
 OFFSET 0.000000 0.000000 0.000000
 CHANNELS 6 Xposition Yposition Zposition Yrotation Xrotation Zrotation
 JOINT Chest
 {
  OFFSET 0.000000 9.588913 -0.003946
  CHANNELS 3 Yrotation Xrotation Zrotation
  JOINT Chest2
  {
   OFFSET 0.000000 9.541882 0.008053
   CHANNELS 3 Yrotation Xrotation Zrotation
   JOINT Chest3
   {
    OFFSET 0.000000 9.501360 0.000000
    CHANNELS 3 Yrotation Xrotation Zrotation
    JOINT Chest4
    {
     OFFSET 0.000000 9.491660 0.000000
     CHANNELS 3 Yrotation Xrotation Zrotation
     JOINT Neck
     {
      OFFSET 0.000000 14.331917 0.000000
      CHANNELS 3 Yrotation Xrotation Zrotation
      JOINT Head
      {
       OFFSET 0.000000 8.884799 0.017034
       CHANNELS 3 Yrotation Xrotation Zrotation
       End Site
       {
        OFFSET 0.000000 16.896195 0.008993
       }
      }
     }
     JOINT RightCollar
     {
      OFFSET -2.923010 9.499495 0.000000
      CHANNELS 3 Yrotation Xrotation Zrotation
      JOINT RightShoulder
      {
       OFFSET -13.795216 0.000000 0.000000
       CHANNELS 3 Yrotation Xrotation Zrotation
       JOINT RightElbow
       {
        OFFSET -30.272209 0.000000 0.000000
        CHANNELS 3 Yrotation Xrotation Zrotation
        JOINT RightWrist
        {
         OFFSET -24.478199 0.000000 0.000000
         CHANNELS 3 Yrotation Xrotation Zrotation
         End Site
         {
          OFFSET -18.090752 0.000000 0.000000
         }
        }
       }
      }
     }
     JOINT LeftCollar
     {
      OFFSET 2.923010 9.499495 0.000000
      CHANNELS 3 Yrotation Xrotation Zrotation
      JOINT LeftShoulder
      {
       OFFSET 13.795216 0.000000 0.000000
       CHANNELS 3 Yrotation Xrotation Zrotation
       JOINT LeftElbow
       {
        OFFSET 30.272209 0.000000 0.000000
        CHANNELS 3 Yrotation Xrotation Zrotation
        JOINT LeftWrist
        {
         OFFSET 24.478199 0.000000 0.000000
         CHANNELS 3 Yrotation Xrotation Zrotation
         End Site
         {
          OFFSET 18.090752 0.000000 0.000000
         }
        }
       }
      }
     }
    }
   }
  }
 }
 JOINT RightHip
 {
  OFFSET -7.826875 0.019532 0.001973
  CHANNELS 3 Yrotation Xrotation Zrotation
  JOINT RightKnee
  {
   OFFSET 0.000000 -40.546152 -0.001885
   CHANNELS 3 Yrotation Xrotation Zrotation
   JOINT RightAnkle
   {
    OFFSET 0.000000 -39.417092 -0.003189
    CHANNELS 3 Yrotation Xrotation Zrotation
    JOINT RightToe
    {
     OFFSET 0.000000 -7.579396 17.243563
     CHANNELS 3 Yrotation Xrotation Zrotation
     End Site
     {
      OFFSET 0.000000 -1.500329 6.694466
     }
    }
   }
  }
 }
 JOINT LeftHip
 {
  OFFSET 7.826875 0.019532 0.001973
  CHANNELS 3 Yrotation Xrotation Zrotation
  JOINT LeftKnee
  {
   OFFSET 0.000000 -40.546152 -0.001885
   CHANNELS 3 Yrotation Xrotation Zrotation
   JOINT LeftAnkle
   {
    OFFSET 0.000000 -39.417092 -0.003189
    CHANNELS 3 Yrotation Xrotation Zrotation
    JOINT LeftToe
    {
     OFFSET 0.000000 -7.579396 17.243563
     CHANNELS 3 Yrotation Xrotation Zrotation
     End Site
     {
      OFFSET 0.000000 -1.500329 6.694466
     }
    }
   }
  }
 }
}
MOTION
Frames: 17
Frame Time: 0.008333
245.502438 86.012156 -172.724826 119.281459 -14.797743 1.140593 2.083708 5.753851 -0.672662 1.053448 3.479109 -0.099624 1.316467 4.349120 -0.114564 1.053445 3.479104 -0.099625 -7.949525 24.995727 1.497298 -9.158366 1.861642 3.481920 0.476437 -0.626590 -0.124354 -5.948784 -2.722221 83.133831 14.827744 3.447574 6.485973 4.369176 -3.547326 -2.764260 5.926739 1.066612 0.120941 9.410915 7.748313 -80.729626 0.405978 8.189731 5.563516 5.973417 9.919762 -1.893275 -18.054451 11.079338 -12.749207 7.440261 48.458165 -0.366540 8.689568 7.347523 17.185293 8.304139 -54.409558 -15.383950 -0.217989 -10.793378 -2.492532 -3.897601 22.438115 1.345182 7.083796 0.243662 -0.469549 0.106453 -3.973433 -1.346218
246.153883 85.813627 -173.284336 119.464386 -15.129393 1.394063 1.996590 5.812705 -0.779494 0.960169 3.525065 -0.140364 1.199425 4.406655 -0.166281 0.960167 3.525061 -0.140365 -7.931549 24.958197 1.481973 -9.132955 1.812194 3.460588 0.319351 -0.471616 -0.176635 -6.151787 -2.264581 83.379977 14.417069 3.343136 6.300627 4.351230 -3.612760 -2.862742 5.760316 0.851507 -0.227938 8.855838 7.254614 -80.804724 0.103443 8.206912 5.309797 5.938526 9.867709 -1.827429 -17.305146 10.224093 -12.855786 8.302802 50.302664 0.531019 8.172088 9.297819 16.607586 8.567252 -57.001033 -15.018762 0.177483 -10.251688 -2.904787 -4.259190 23.096687 1.326628 6.821861 -0.387877 -0.348325 0.127049 -3.350771 -1.169995
246.757950 85.634345 -173.808636 119.609755 -15.447691 1.647389 1.925963 5.880186 -0.892097 0.877819 3.568385 -0.174989 1.096097 4.460864 -0.210274 0.877818 3.568383 -0.174990 -7.917061 24.906989 1.455684 -9.108483 1.745567 3.427894 0.165746 -0.299015 -0.204388 -6.391440 -1.859725 83.594671 13.924220 3.227552 6.134125 4.403492 -3.688113 -2.947492 5.620937 0.638924 -0.594997 8.305417 6.660645 -80.863372 -0.222108 8.284796 5.040893 5.848831 9.785461 -1.695585 -16.472184 9.424270 -12.878728 8.928965 51.960150 1.271461 7.449154 10.406770 15.888913 8.260306 -58.613637 -14.031316 0.420018 -9.589859 -3.306131 -4.008327 23.562222 1.530658 6.325281 -1.126686 -0.247950 0.160453 -2.690207 -1.002277
247.342659 85.487742 -174.309434 119.740633 -15.747575 1.883631 1.857679 5.953906 -1.000475 0.802153 3.603971 -0.203133 1.001185 4.505377 -0.246134 0.802153 3.603969 -0.203134 -7.902012 24.854329 1.415951 -9.079995 1.676386 3.380128 0.022965 -0.096880 -0.224928 -6.649184 -1.503677 83.803036 13.332946 3.097357 5.962699 4.519958 -3.762155 -3.010458 5.503067 0.430941 -0.971480 7.797009 5.989321 -80.902164 -0.579226 8.413837 4.744796 5.687680 9.662268 -1.482991 -15.707781 8.640879 -12.919301 9.203662 53.452901 1.755574 6.613787 10.508982 15.107533 7.355952 -59.079180 -12.402674 0.459308 -8.844659 -3.697049 -3.269065 23.865661 1.936413 5.719301 -1.902299 -0.200854 0.192503 -2.050434 -0.839697
247.993151 85.396817 -174.794523 119.633848 -16.300149 1.987232 2.028526 6.317745 -0.916408 0.727506 3.625338 -0.224967 0.907607 4.532092 -0.274134 0.727506 3.625337 -0.224967 -7.880657 24.809979 1.362808 -9.041154 1.616156 3.315979 -0.102400 0.131130 -0.250094 -6.896390 -1.180493 84.026360 12.641651 2.942257 5.760904 4.675355 -3.824697 -3.046821 5.410332 0.227996 -1.340575 7.357794 5.274647 -80.927685 -0.986057 8.572972 4.406054 5.446421 9.494165 -1.173410 -14.898285 8.136221 -12.915285 9.234234 54.766245 2.008604 5.687555 9.774177 14.297822 6.027442 -58.502968 -10.303003 0.633707 -7.463261 -3.784576 -2.448970 23.663060 2.409123 4.845904 -2.869919 -0.387131 0.492690 -1.184980 -0.561309
248.665983 85.352445 -175.271592 119.671297 -16.737474 2.072205 2.068506 6.604413 -0.873906 0.650374 3.629483 -0.240262 0.810990 4.537257 -0.294020 0.650374 3.629482 -0.240262 -7.850123 24.780039 1.296911 -8.988999 1.572177 3.235516 -0.211394 0.378167 -0.288773 -7.107502 -0.874331 84.281918 11.854878 2.755393 5.506928 4.831399 -3.871199 -3.047773 5.339019 0.042341 -1.678664 7.008184 4.541616 -80.967174 -1.464162 8.734796 4.019746 5.124408 9.275544 -0.758142 -14.445136 7.390821 -12.983732 9.252772 55.991293 2.115803 4.668895 8.396806 13.521298 4.528699 -57.082985 -7.988015 0.768765 -6.219121 -3.956164 -1.811926 23.474336 2.877798 4.241857 -3.713136 -0.527625 0.648426 -0.504239 -0.354215
249.390568 85.358562 -175.738412 119.810796 -17.102187 2.102810 2.028388 6.856375 -0.829267 0.568980 3.617340 -0.248695 0.709119 4.522043 -0.305393 0.568980 3.617340 -0.248694 -7.810022 24.765317 1.219296 -8.923400 1.545491 3.139824 -0.312575 0.633706 -0.348952 -7.267185 -0.569343 84.583664 10.989237 2.543650 5.187253 4.942785 -3.892731 -3.009425 5.271236 -0.106342 -1.963238 6.765870 3.798663 -81.055273 -2.027861 8.865594 3.588878 4.726204 8.999707 -0.247883 -14.296757 6.462232 -13.058031 9.297253 57.076983 2.061856 3.620179 6.704368 12.781663 3.081167 -55.095786 -5.682896 0.863693 -5.016982 -4.081423 -1.526221 23.219540 3.214448 3.896527 -4.457553 -0.679221 0.760941 0.067165 -0.172224
250.153588 85.406714 -176.187120 120.158541 -17.268476 2.089016 1.811517 6.947321 -0.828662 0.481119 3.590529 -0.250259 0.599237 4.488475 -0.308250 0.481119 3.590528 -0.250257 -7.759976 24.764469 1.129727 -8.843872 1.534427 3.028582 -0.409773 0.888657 -0.437241 -7.361708 -0.254881 84.932270 10.066531 2.311428 4.803681 4.967310 -3.883125 -2.942228 5.190597 -0.210131 -2.184469 6.630017 3.057521 -81.217118 -2.682770 8.923595 3.117937 4.265333 8.672692 0.330063 -14.496422 5.228650 -13.124993 9.297624 58.024271 1.810024 2.628766 4.931428 12.062681 1.801238 -52.786475 -3.507098 0.763883 -4.057209 -4.174366 -1.568096 22.984971 3.367043 3.835924 -5.023789 -0.814001 0.795763 0.448507 -0.032668
250.951780 85.490656 -176.611175 120.687642 -17.228827 2.040313 1.447085 6.874439 -0.864841 0.385521 3.549670 -0.244825 0.479757 4.437334 -0.302434 0.385522 3.549669 -0.244823 -7.702464 24.775328 1.025658 -8.752621 1.536498 2.899586 -0.503045 1.140644 -0.561697 -7.389847 0.068253 85.315751 9.105943 2.064880 4.370813 4.873087 -3.851713 -2.850228 5.091115 -0.281484 -2.347706 6.579392 2.345691 -81.461133 -3.430063 8.870512 2.599124 3.763187 8.307411 0.942009 -14.962207 3.742936 -13.167090 9.144159 58.780729 1.322533 1.758755 3.272421 11.348387 0.721331 -50.352472 -1.498437 0.470766 -3.368906 -4.212326 -1.824922 22.797902 3.339996 3.940481 -5.434986 -0.930876 0.775860 0.661641 0.076012
251.782215 85.604525 -177.006381 121.337534 -17.024478 1.967126 0.995120 6.683888 -0.916990 0.281261 3.496194 -0.232925 0.349515 4.370413 -0.288600 0.281262 3.496194 -0.232922 -7.640364 24.794169 0.907036 -8.652889 1.547480 2.753496 -0.595866 1.389280 -0.726961 -7.368609 0.390043 85.722540 8.124612 1.827051 3.904466 4.641228 -3.804751 -2.725822 4.977076 -0.339601 -2.459677 6.581139 1.687142 -81.783467 -4.261710 8.677511 2.013285 3.234173 7.919622 1.555474 -15.602420 2.102425 -13.174409 8.781555 59.313466 0.599764 1.055401 1.837061 10.621573 -0.166455 -47.928563 0.334062 0.024177 -2.889075 -4.178963 -2.135729 22.631444 3.185367 4.081999 -5.728192 -1.042066 0.718151 0.748593 0.168301
252.639911 85.742501 -177.372709 122.047755 -16.713554 1.886298 0.514142 6.430921 -0.973704 0.166867 3.433513 -0.215825 0.206654 4.291983 -0.268333 0.166868 3.433512 -0.215821 -7.574051 24.818161 0.776865 -8.545816 1.564145 2.593765 -0.688914 1.634552 -0.928278 -7.314238 0.702967 86.142685 7.140984 1.621787 3.420069 4.267606 -3.740382 -2.572645 4.857365 -0.394597 -2.526036 6.598660 1.085619 -82.173130 -5.160831 8.330482 1.346405 2.688362 7.518273 2.138472 -16.340244 0.419251 -13.150443 8.203632 59.590768 -0.329912 0.538682 0.640389 9.876344 -0.872333 -45.499385 1.978546 -0.512231 -2.527260 -4.082697 -2.355695 22.453170 2.976711 4.142727 -5.977955 -1.163488 0.649333 0.784154 0.258483
253.528870 85.900606 -177.710171 122.725055 -16.394949 1.777182 0.092561 6.199888 -0.983094 0.043906 3.367307 -0.193909 0.053124 4.209152 -0.242085 0.043908 3.367306 -0.193906 -7.503413 24.844867 0.639387 -8.432294 1.583743 2.425090 -0.780011 1.876655 -1.157896 -7.234822 1.008427 86.568490 6.175102 1.456784 2.930333 3.756301 -3.660014 -2.400662 4.737072 -0.455147 -2.561976 6.602608 0.537331 -82.602136 -6.110740 7.842603 0.586105 2.137864 7.098891 2.657473 -17.079377 -1.145124 -13.060745 7.429514 59.573847 -1.425965 0.183834 -0.348572 9.146407 -1.387914 -42.933169 3.400125 -0.991435 -2.157780 -3.890949 -2.440475 22.251388 2.770640 4.087191 -6.172634 -1.288802 0.553146 0.750391 0.332303
254.435722 86.071638 -178.023614 123.365837 -16.080993 1.660586 -0.278201 5.982168 -0.969996 -0.082066 3.303889 -0.167178 -0.104132 4.129818 -0.209799 -0.082064 3.303887 -0.167175 -7.428636 24.871815 0.501539 -8.314189 1.603596 2.255206 -0.876383 2.118079 -1.408481 -7.139852 1.303019 86.999968 5.239756 1.339118 2.444545 3.121035 -3.568978 -2.214888 4.614848 -0.533982 -2.587073 6.569084 0.040619 -83.027755 -7.092112 7.233581 -0.278429 1.591225 6.655899 3.080976 -17.813484 -2.565798 -12.923441 6.532923 59.258390 -2.615810 -0.049211 -1.189320 8.489793 -1.704581 -40.186061 4.558316 -1.336922 -1.746781 -3.638696 -2.457342 22.001797 2.585204 3.892008 -6.377351 -1.424933 0.477193 0.722909 0.399169
255.367538 86.251956 -178.310045 123.957750 -15.847789 1.448733 -0.589257 5.837893 -0.844253 -0.205267 3.248055 -0.137050 -0.257902 4.059986 -0.173202 -0.205266 3.248053 -0.137047 -7.351454 24.896890 0.370963 -8.195284 1.621587 2.092960 -0.985921 2.363457 -1.672268 -7.050895 1.576622 87.435064 4.323828 1.292683 1.970826 2.395330 -3.462522 -2.009179 4.491254 -0.638420 -2.613529 6.481996 -0.415598 -83.416747 -8.084110 6.532323 -1.248467 1.060939 6.191677 3.381993 -18.553700 -3.642636 -12.657030 5.557616 58.493152 -3.837389 -0.241808 -1.968944 7.904019 -1.809235 -37.237603 5.453190 -1.516276 -1.199530 -3.253335 -2.504273 21.671465 2.417532 3.670153 -6.566277 -1.548128 0.377058 0.699611 0.428128
256.318916 86.443196 -178.608464 124.598986 -15.844854 1.270337 -0.960724 5.901552 -0.759702 -0.321799 3.203978 -0.105418 -0.403328 4.004871 -0.134642 -0.321798 3.203975 -0.105417 -7.276208 24.916508 0.252172 -8.081499 1.633847 1.944331 -1.104399 2.609625 -1.942681 -6.987837 1.829948 87.862425 3.429957 1.332734 1.517406 1.614851 -3.339991 -1.773321 4.367990 -0.769422 -2.648834 6.339507 -0.852395 -83.751996 -9.073806 5.784487 -2.320273 0.567833 5.710131 3.541529 -19.388158 -4.226660 -12.525796 4.683296 57.296504 -4.950927 -0.333190 -2.939197 7.528408 -1.809364 -34.043957 6.020107 -1.664546 -0.375265 -2.917779 -2.621057 21.258237 2.273529 3.442321 -6.695228 -1.671969 0.295628 0.639004 0.433082
257.259221 86.629321 -178.886988 124.999584 -15.828855 1.098637 -1.100339 5.931378 -0.606406 -0.429291 3.175060 -0.073805 -0.537460 3.968728 -0.096017 -0.429291 3.175058 -0.073805 -7.205588 24.926243 0.147960 -7.976414 1.635189 1.813009 -1.225441 2.843229 -2.212569 -6.949541 2.073761 88.272467 2.584554 1.448126 1.089454 0.795478 -3.200413 -1.502149 4.242198 -0.933736 -2.703399 6.152823 -1.281113 -84.017001 -10.060315 5.023480 -3.488135 0.132962 5.227184 3.553816 -19.940730 -4.840343 -12.269677 3.876348 56.021726 -5.965962 -0.403112 -3.590827 7.300545 -1.690203 -31.155258 6.355486 -1.576496 0.338942 -2.580189 -2.758944 21.076446 2.198347 3.360508 -6.887341 -1.768557 0.122693 0.503685 0.365782
258.181443 86.808143 -179.158217 125.333953 -15.838519 0.929198 -1.185692 5.961248 -0.432663 -0.525973 3.161333 -0.043235 -0.658090 3.951591 -0.058609 -0.525973 3.161331 -0.043235 -7.139740 24.924805 0.059506 -7.880395 1.623990 1.700294 -1.349552 3.055621 -2.473680 -6.918162 2.319094 88.661086 1.793364 1.614769 0.688414 -0.031543 -3.026504 -1.193989 4.111142 -1.137797 -2.784965 5.934968 -1.704655 -84.197715 -11.045062 4.263633 -4.739197 -0.224849 4.767826 3.427708 -20.346067 -5.340578 -11.989082 3.223393 54.552701 -6.757328 -0.494775 -4.111432 7.232063 -1.512080 -28.399493 6.462911 -1.496044 1.104093 -2.223432 -2.900404 20.847840 2.151269 3.245340 -7.122397 -1.921309 0.049963 0.411875 0.318978
